<mxfile host="app.diagrams.net" modified="2021-12-06T08:57:02.191Z" agent="5.0 (Macintosh; Intel Mac OS X 10_15_7) AppleWebKit/537.36 (KHTML, like Gecko) Chrome/96.0.4664.55 Safari/537.36" etag="6oTjmfANCOr5fr0wrKxv" version="15.8.3" type="github">
  <diagram id="t5CkIW-p-jm3hkRyZhO1" name="Page-1">
    <mxGraphModel dx="1123" dy="653" grid="1" gridSize="10" guides="1" tooltips="1" connect="1" arrows="1" fold="1" page="1" pageScale="1" pageWidth="850" pageHeight="1100" math="0" shadow="0">
      <root>
        <mxCell id="0" />
        <mxCell id="1" parent="0" />
        <mxCell id="R9LKTBYttzrI885kwlBz-1" value="EarClips" style="rounded=0;whiteSpace=wrap;html=1;" vertex="1" parent="1">
          <mxGeometry x="70" y="60" width="120" height="40" as="geometry" />
        </mxCell>
        <mxCell id="R9LKTBYttzrI885kwlBz-2" value="AlphaStim" style="rounded=0;whiteSpace=wrap;html=1;" vertex="1" parent="1">
          <mxGeometry x="250" y="60" width="120" height="40" as="geometry" />
        </mxCell>
        <mxCell id="R9LKTBYttzrI885kwlBz-3" value="Treatment" style="rounded=0;whiteSpace=wrap;html=1;" vertex="1" parent="1">
          <mxGeometry x="410" y="60" width="120" height="40" as="geometry" />
        </mxCell>
        <mxCell id="R9LKTBYttzrI885kwlBz-5" value="" style="endArrow=none;dashed=1;html=1;rounded=0;entryX=0.433;entryY=1.05;entryDx=0;entryDy=0;entryPerimeter=0;startArrow=none;" edge="1" parent="1" source="R9LKTBYttzrI885kwlBz-25" target="R9LKTBYttzrI885kwlBz-1">
          <mxGeometry width="50" height="50" relative="1" as="geometry">
            <mxPoint x="122" y="370" as="sourcePoint" />
            <mxPoint x="430" y="210" as="targetPoint" />
          </mxGeometry>
        </mxCell>
        <mxCell id="R9LKTBYttzrI885kwlBz-6" value="" style="endArrow=none;dashed=1;html=1;rounded=0;entryX=0.5;entryY=1;entryDx=0;entryDy=0;startArrow=none;" edge="1" parent="1" source="R9LKTBYttzrI885kwlBz-29" target="R9LKTBYttzrI885kwlBz-2">
          <mxGeometry width="50" height="50" relative="1" as="geometry">
            <mxPoint x="310" y="370" as="sourcePoint" />
            <mxPoint x="430" y="210" as="targetPoint" />
          </mxGeometry>
        </mxCell>
        <mxCell id="R9LKTBYttzrI885kwlBz-7" value="" style="endArrow=none;dashed=1;html=1;rounded=0;entryX=0.5;entryY=1;entryDx=0;entryDy=0;startArrow=none;" edge="1" parent="1" source="R9LKTBYttzrI885kwlBz-31" target="R9LKTBYttzrI885kwlBz-3">
          <mxGeometry width="50" height="50" relative="1" as="geometry">
            <mxPoint x="470" y="370" as="sourcePoint" />
            <mxPoint x="430" y="210" as="targetPoint" />
          </mxGeometry>
        </mxCell>
        <mxCell id="R9LKTBYttzrI885kwlBz-9" value="" style="endArrow=classic;html=1;rounded=0;startArrow=none;exitX=0.04;exitY=-0.03;exitDx=0;exitDy=0;exitPerimeter=0;" edge="1" parent="1" source="R9LKTBYttzrI885kwlBz-10">
          <mxGeometry width="50" height="50" relative="1" as="geometry">
            <mxPoint x="120" y="140" as="sourcePoint" />
            <mxPoint x="120" y="170" as="targetPoint" />
            <Array as="points">
              <mxPoint x="160" y="140" />
              <mxPoint x="160" y="170" />
            </Array>
          </mxGeometry>
        </mxCell>
        <mxCell id="R9LKTBYttzrI885kwlBz-10" value="senseUnConnect()" style="text;html=1;align=center;verticalAlign=middle;resizable=0;points=[];autosize=1;strokeColor=none;fillColor=none;" vertex="1" parent="1">
          <mxGeometry x="120" y="140" width="120" height="20" as="geometry" />
        </mxCell>
        <mxCell id="R9LKTBYttzrI885kwlBz-11" value="" style="endArrow=classic;html=1;rounded=0;" edge="1" parent="1">
          <mxGeometry width="50" height="50" relative="1" as="geometry">
            <mxPoint x="120" y="190" as="sourcePoint" />
            <mxPoint x="310" y="190" as="targetPoint" />
          </mxGeometry>
        </mxCell>
        <mxCell id="R9LKTBYttzrI885kwlBz-12" value="unConnected()" style="text;html=1;align=center;verticalAlign=middle;resizable=0;points=[];autosize=1;strokeColor=none;fillColor=none;" vertex="1" parent="1">
          <mxGeometry x="160" y="170" width="90" height="20" as="geometry" />
        </mxCell>
        <mxCell id="R9LKTBYttzrI885kwlBz-15" value="if reconnect in 5 secs" style="text;html=1;align=center;verticalAlign=middle;resizable=0;points=[];autosize=1;strokeColor=none;fillColor=none;" vertex="1" parent="1">
          <mxGeometry x="30" y="210" width="130" height="20" as="geometry" />
        </mxCell>
        <mxCell id="R9LKTBYttzrI885kwlBz-16" value="" style="endArrow=classic;html=1;rounded=0;" edge="1" parent="1">
          <mxGeometry width="50" height="50" relative="1" as="geometry">
            <mxPoint x="120" y="260" as="sourcePoint" />
            <mxPoint x="310" y="260" as="targetPoint" />
          </mxGeometry>
        </mxCell>
        <mxCell id="R9LKTBYttzrI885kwlBz-17" value="reconnect()" style="edgeLabel;html=1;align=center;verticalAlign=middle;resizable=0;points=[];" vertex="1" connectable="0" parent="R9LKTBYttzrI885kwlBz-16">
          <mxGeometry x="-0.3684" y="-3" relative="1" as="geometry">
            <mxPoint as="offset" />
          </mxGeometry>
        </mxCell>
        <mxCell id="R9LKTBYttzrI885kwlBz-18" value="" style="endArrow=classic;html=1;rounded=0;" edge="1" parent="1">
          <mxGeometry width="50" height="50" relative="1" as="geometry">
            <mxPoint x="310" y="280" as="sourcePoint" />
            <mxPoint x="470" y="280" as="targetPoint" />
          </mxGeometry>
        </mxCell>
        <mxCell id="R9LKTBYttzrI885kwlBz-19" value="resumeTreatment()" style="text;html=1;align=center;verticalAlign=middle;resizable=0;points=[];autosize=1;strokeColor=none;fillColor=none;" vertex="1" parent="1">
          <mxGeometry x="310" y="260" width="120" height="20" as="geometry" />
        </mxCell>
        <mxCell id="R9LKTBYttzrI885kwlBz-20" value="" style="endArrow=classic;html=1;rounded=0;" edge="1" parent="1">
          <mxGeometry width="50" height="50" relative="1" as="geometry">
            <mxPoint x="310" y="330" as="sourcePoint" />
            <mxPoint x="470" y="330" as="targetPoint" />
          </mxGeometry>
        </mxCell>
        <mxCell id="R9LKTBYttzrI885kwlBz-21" value="stopTreatment()" style="text;html=1;align=center;verticalAlign=middle;resizable=0;points=[];autosize=1;strokeColor=none;fillColor=none;" vertex="1" parent="1">
          <mxGeometry x="320" y="330" width="100" height="20" as="geometry" />
        </mxCell>
        <mxCell id="R9LKTBYttzrI885kwlBz-22" value="" style="verticalLabelPosition=bottom;verticalAlign=top;html=1;shape=mxgraph.basic.rect;fillColor2=none;strokeWidth=1;size=20;indent=5;fillColor=none;" vertex="1" parent="1">
          <mxGeometry x="80" y="230" width="420" height="70" as="geometry" />
        </mxCell>
        <mxCell id="R9LKTBYttzrI885kwlBz-23" value="" style="verticalLabelPosition=bottom;verticalAlign=top;html=1;shape=mxgraph.basic.rect;fillColor2=none;strokeWidth=1;size=20;indent=5;fillColor=none;" vertex="1" parent="1">
          <mxGeometry x="80" y="310" width="420" height="40" as="geometry" />
        </mxCell>
        <mxCell id="R9LKTBYttzrI885kwlBz-24" value="if exceed 5 secs" style="text;html=1;align=center;verticalAlign=middle;resizable=0;points=[];autosize=1;strokeColor=none;fillColor=none;" vertex="1" parent="1">
          <mxGeometry x="20" y="320" width="100" height="20" as="geometry" />
        </mxCell>
        <mxCell id="R9LKTBYttzrI885kwlBz-26" value="" style="endArrow=none;html=1;rounded=0;" edge="1" parent="1" target="R9LKTBYttzrI885kwlBz-25">
          <mxGeometry width="50" height="50" relative="1" as="geometry">
            <mxPoint x="120" y="140" as="sourcePoint" />
            <mxPoint x="120" y="170" as="targetPoint" />
            <Array as="points" />
          </mxGeometry>
        </mxCell>
        <mxCell id="R9LKTBYttzrI885kwlBz-25" value="" style="verticalLabelPosition=bottom;verticalAlign=top;html=1;shape=mxgraph.basic.rect;fillColor2=none;strokeWidth=1;size=20;indent=5;fillColor=default;" vertex="1" parent="1">
          <mxGeometry x="120" y="110" width="10" height="160" as="geometry" />
        </mxCell>
        <mxCell id="R9LKTBYttzrI885kwlBz-28" value="" style="endArrow=none;dashed=1;html=1;rounded=0;entryX=0.433;entryY=1.05;entryDx=0;entryDy=0;entryPerimeter=0;" edge="1" parent="1" target="R9LKTBYttzrI885kwlBz-25">
          <mxGeometry width="50" height="50" relative="1" as="geometry">
            <mxPoint x="124" y="370" as="sourcePoint" />
            <mxPoint x="121.96000000000004" y="102" as="targetPoint" />
          </mxGeometry>
        </mxCell>
        <mxCell id="R9LKTBYttzrI885kwlBz-29" value="" style="verticalLabelPosition=bottom;verticalAlign=top;html=1;shape=mxgraph.basic.rect;fillColor2=none;strokeWidth=1;size=20;indent=5;fillColor=default;" vertex="1" parent="1">
          <mxGeometry x="305" y="170" width="10" height="170" as="geometry" />
        </mxCell>
        <mxCell id="R9LKTBYttzrI885kwlBz-30" value="" style="endArrow=none;dashed=1;html=1;rounded=0;entryX=0.5;entryY=1;entryDx=0;entryDy=0;" edge="1" parent="1" target="R9LKTBYttzrI885kwlBz-29">
          <mxGeometry width="50" height="50" relative="1" as="geometry">
            <mxPoint x="310" y="370" as="sourcePoint" />
            <mxPoint x="310" y="100" as="targetPoint" />
          </mxGeometry>
        </mxCell>
        <mxCell id="R9LKTBYttzrI885kwlBz-31" value="" style="verticalLabelPosition=bottom;verticalAlign=top;html=1;shape=mxgraph.basic.rect;fillColor2=none;strokeWidth=1;size=20;indent=5;fillColor=default;" vertex="1" parent="1">
          <mxGeometry x="465" y="280" width="10" height="60" as="geometry" />
        </mxCell>
        <mxCell id="R9LKTBYttzrI885kwlBz-32" value="" style="endArrow=none;dashed=1;html=1;rounded=0;entryX=0.5;entryY=1;entryDx=0;entryDy=0;" edge="1" parent="1" target="R9LKTBYttzrI885kwlBz-31">
          <mxGeometry width="50" height="50" relative="1" as="geometry">
            <mxPoint x="470" y="370" as="sourcePoint" />
            <mxPoint x="470" y="100" as="targetPoint" />
          </mxGeometry>
        </mxCell>
      </root>
    </mxGraphModel>
  </diagram>
</mxfile>
